<?xml version="1.0"?>
<svg xmlns="http://www.w3.org/2000/svg" id="Capa_1" enable-background="new 0 0 511.97 511.97" height="512px" viewBox="0 0 511.97 511.97" width="512px"><g><path d="m255.985 140c22.056 0 40-17.944 40-40s-17.944-40-40-40-40 17.944-40 40 17.944 40 40 40zm0-60c11.028 0 20 8.972 20 20s-8.972 20-20 20-20-8.972-20-20 8.972-20 20-20z" data-original="#000000" class="active-path" data-old_color="#000000" fill="#EE7015"/><path d="m114.985 422c22.056 0 40-17.944 40-40s-17.944-40-40-40-40 17.944-40 40 17.944 40 40 40zm0-60c11.028 0 20 8.972 20 20s-8.972 20-20 20-20-8.972-20-20 8.972-20 20-20z" data-original="#000000" class="active-path" data-old_color="#000000" fill="#EE7015"/><path d="m114.985 511.97c62.96 0 114.97-50.903 114.97-114.97 0-25.225-8.15-49.358-23.167-69.221l49.197-24.598 49.196 24.598c-15.017 19.864-23.167 43.996-23.167 69.222 0 63.358 51.336 114.97 114.97 114.97 62.96 0 114.97-50.903 114.97-114.97 0-63.395-51.575-114.97-114.97-114.97-29.222 0-56.585 10.734-77.846 30.367l-53.154-26.577v-56.298c58.931-5.092 104.97-54.431 104.97-114.522 0-44.691-26.228-85.682-66.819-104.428-5.015-2.315-10.957-.128-13.271 4.886-2.315 5.014-.128 10.956 4.886 13.271 33.536 15.488 55.205 49.351 55.205 86.271 0 28.009-12.216 54.182-33.184 72.123-11.997-22.383-35.765-37.124-61.786-37.124s-49.789 14.741-61.787 37.124c-20.966-17.939-33.183-44.114-33.183-72.124 0-36.919 21.669-70.783 55.205-86.271 5.014-2.315 7.201-8.257 4.886-13.271-2.316-5.014-8.26-7.201-13.271-4.886-40.592 18.746-66.82 59.737-66.82 104.428 0 60.101 46.047 109.43 104.97 114.522v56.298l-53.154 26.577c-21.26-19.633-48.623-30.367-77.846-30.367-63.395 0-114.97 51.575-114.97 114.97 0 63.358 51.335 114.97 114.97 114.97zm-45.163-31.423c8.182-17.12 25.797-28.547 45.163-28.547s36.982 11.427 45.163 28.547c-13.808 7.487-29.265 11.423-45.163 11.423-15.897 0-31.353-3.936-45.163-11.423zm282 0c8.182-17.12 25.797-28.547 45.163-28.547s36.982 11.427 45.163 28.547c-13.808 7.487-29.265 11.423-45.163 11.423-15.897 0-31.353-3.936-45.163-11.423zm140.133-83.547c0 28.01-12.217 54.185-33.183 72.124-11.998-22.383-35.766-37.124-61.787-37.124s-49.789 14.741-61.787 37.124c-20.966-17.939-33.183-44.114-33.183-72.124 0-24.534 9.328-47.819 26.264-65.565.028-.029.089-.09.091-.093 18.092-18.902 42.454-29.312 68.616-29.312 52.366 0 94.969 42.603 94.969 94.97zm-235.97-227c19.366 0 36.982 11.427 45.163 28.547-13.808 7.487-29.265 11.423-45.163 11.423-15.897 0-31.353-3.936-45.163-11.424 8.182-17.119 25.797-28.546 45.163-28.546zm-141 132.03c26.198 0 50.593 10.438 68.691 29.389.019.02.037.041.056.06 16.91 17.742 26.223 41.008 26.223 65.521 0 28.01-12.217 54.185-33.183 72.124-11.998-22.383-35.766-37.124-61.787-37.124s-49.789 14.741-61.787 37.124c-20.966-17.939-33.183-44.114-33.183-72.124 0-52.367 42.603-94.97 94.97-94.97z" data-original="#000000" class="active-path" data-old_color="#000000" fill="#EE7015"/><path d="m396.985 422c22.056 0 40-17.944 40-40s-17.944-40-40-40-40 17.944-40 40 17.944 40 40 40zm0-60c11.028 0 20 8.972 20 20s-8.972 20-20 20-20-8.972-20-20 8.972-20 20-20z" data-original="#000000" class="active-path" data-old_color="#000000" fill="#EE7015"/><circle cx="255.985" cy="10" r="10" data-original="#000000" class="active-path" data-old_color="#000000" fill="#EE7015"/></g> </svg>
